<svg width="496" height="447" viewBox="0 0 496 447" fill="none" xmlns="http://www.w3.org/2000/svg">
<g filter="url(#filter0_f)">
<circle cx="272.5" cy="223.5" r="183.5" fill="#F6F5F7"/>
</g>
<circle cx="263" cy="214" r="174" fill="white"/>
<g clip-path="url(#clip0)">
<path opacity="0.42" d="M50.8661 75.0001L220.29 91.4899C223.994 91.807 226.957 94.7667 227.486 98.4663L258.492 335.031C259.021 338.836 256.693 342.43 253.095 343.699L95.6295 396.973C90.8674 398.559 85.7879 395.494 85.0471 390.42L42.0827 84.1963C41.342 79.0168 45.6807 74.5773 50.8661 75.0001Z" fill="url(#paint0_linear)"/>
<path d="M63.9883 104.914C63.9883 104.914 64.729 92.4411 79.9676 93.2867L126.848 414.309C126.848 414.309 110.551 420.968 104.307 407.544L63.9883 104.914Z" fill="url(#paint1_linear)"/>
<path d="M79.5442 93.1812L248.968 109.671C252.672 109.988 255.635 112.948 256.164 116.647L287.276 353.318C287.805 357.123 285.477 360.717 281.879 361.986L124.413 415.155C119.651 416.74 114.572 413.675 113.831 408.601L70.8667 102.377C70.1259 97.198 74.3589 92.7584 79.5442 93.1812Z" fill="url(#paint2_linear)"/>
<path d="M254.683 125.104L283.572 344.967C283.996 348.456 281.879 351.838 278.281 353.001L126.001 403.21C125.049 403.527 124.202 403.633 123.25 403.633C119.546 403.527 116.371 400.99 115.842 397.185L75.7348 112.736C75.2057 108.931 77.6396 105.549 81.2376 104.492C82.19 104.174 83.2483 104.069 84.3065 104.174L247.804 118.656C251.296 118.973 254.259 121.721 254.683 125.104Z" fill="url(#paint3_linear)"/>
<path d="M252.143 125.421L281.033 345.284C281.456 348.772 279.339 352.155 275.741 353.318L123.461 403.527C123.355 403.527 123.25 403.527 123.25 403.633C119.546 403.527 116.371 400.99 115.842 397.185L75.7348 112.736C75.2057 108.931 77.6396 105.548 81.2376 104.491C81.4493 104.491 81.5551 104.491 81.7667 104.491L245.264 118.973C248.862 119.395 251.719 122.038 252.143 125.421Z" fill="#4E9CDB"/>
<path opacity="0.5" d="M94.9946 249.305C94.9946 249.305 114.466 358.603 149.705 406.592L168.436 400.356L94.9946 249.305Z" fill="#49BDDD"/>
<path d="M352.887 356.912C352.887 356.912 281.667 344.65 179.442 410.081C179.442 410.081 133.62 395.071 99.1216 279.008L352.887 356.912Z" fill="url(#paint4_linear)"/>
<path d="M103.566 402.576C103.566 402.576 79.2268 225.734 80.285 225.522C81.3432 225.311 103.884 388.623 103.884 388.623C103.884 388.623 106 402.682 103.566 402.576Z" fill="url(#paint5_linear)"/>
<path d="M352.887 356.912C332.251 353.635 309.922 355.96 288.334 361.14C231.084 374.67 179.23 407.755 179.23 407.755C142.192 387.989 111.821 320.338 99.1218 279.008L95.8413 255.648L75.3115 110.305V110.199C74.7824 106.183 78.1688 102.695 82.1901 103.117L246.428 118.867C249.286 119.184 251.614 121.298 252.037 124.152C252.037 124.258 252.037 124.258 252.037 124.364C252.778 129.649 253.73 137.577 255 146.984L256.058 155.229L256.376 157.66C257.222 163.791 258.069 170.345 258.915 176.899L261.032 192.86C261.244 194.657 261.455 196.348 261.667 198.145L267.064 239.158C268.016 246.134 268.545 250.574 268.651 251.208C298.494 317.379 352.887 356.912 352.887 356.912Z" fill="url(#paint6_linear)"/>
<path opacity="0.2" d="M134.678 127.64L137.112 142.545C137.43 144.87 139.44 146.561 141.663 146.667L210.66 149.733C213.729 149.838 216.162 147.196 215.739 144.13L213.729 130.917C213.411 128.697 211.506 126.901 209.284 126.795L139.864 122.038C136.689 121.721 134.255 124.469 134.678 127.64Z" fill="#49BDDD"/>
<g opacity="0.2">
<path opacity="0.2" d="M244.915 191.882L244.879 190.932L103.809 196.344L103.846 197.295L244.915 191.882Z" fill="#49BDDD"/>
</g>
<g opacity="0.2">
<path opacity="0.2" d="M263.092 237.249L263.011 236.301L110.978 249.384L111.059 250.331L263.092 237.249Z" fill="#49BDDD"/>
</g>
<g opacity="0.2">
<path opacity="0.2" d="M127.059 302.791L126.848 301.946C127.906 301.629 234.682 271.609 280.927 277.317L280.821 278.268C234.682 272.56 128.118 302.58 127.059 302.791Z" fill="#49BDDD"/>
</g>
<path d="M116.477 167.174L117.535 176.264C117.852 178.59 119.757 180.281 122.191 180.281L130.34 180.07C133.091 179.964 135.102 177.638 134.784 174.89L133.62 166.328C133.303 164.108 131.504 162.523 129.281 162.417L121.239 162.1C118.381 161.994 116.053 164.425 116.477 167.174Z" fill="#FC5852"/>
<path d="M122.191 216.855L123.144 225.099C123.461 227.848 125.895 229.75 128.541 229.539L135.948 228.799C138.806 228.482 140.816 225.945 140.393 223.197L139.335 215.375C139.017 212.838 136.795 210.935 134.149 211.041L126.848 211.358C124.096 211.358 121.874 214.001 122.191 216.855Z" fill="#FC5852"/>
<path opacity="0.2" d="M130.975 267.698C132.033 271.186 133.938 276.788 136.583 281.122C137.218 282.285 138.7 282.814 139.97 282.496C142.509 281.862 146.742 280.594 150.129 279.642C151.822 279.114 152.668 277.317 152.139 275.731C150.975 272.666 149.282 267.804 148.118 264.632C147.695 263.364 146.319 262.518 144.943 262.624L133.514 263.787C131.715 263.998 130.446 265.901 130.975 267.698Z" fill="#49BDDD"/>
<path opacity="0.2" d="M160.288 345.813C161.981 349.089 164.944 354.163 168.33 357.969C169.177 359.026 170.658 359.237 171.928 358.603C174.256 357.44 178.172 355.432 181.347 353.846C182.934 353 183.463 351.098 182.511 349.618C180.817 346.764 178.172 342.43 176.479 339.47C175.738 338.308 174.362 337.673 172.986 338.096L162.087 341.479C160.288 342.113 159.441 344.121 160.288 345.813Z" fill="#49BDDD"/>
<path opacity="0.2" d="M251.931 124.152L254.894 146.984L255.952 155.229L256.27 157.66L258.81 176.899L260.926 192.754L261.667 198.039L267.064 238.947C267.593 243.175 268.016 246.452 268.334 248.566L268.651 250.997L250.238 131.023C249.603 126.795 246.111 123.624 241.878 123.307L75.3115 110.305V110.199C74.7824 106.183 78.1688 102.695 82.1901 103.117L246.428 118.867C249.18 119.184 251.508 121.298 251.931 124.152Z" fill="#49BDDD"/>
<g opacity="0.2">
<path opacity="0.2" d="M192.564 387.566C190.659 387.566 188.86 386.826 187.484 385.557C182.511 380.906 177.537 375.41 174.045 370.864C172.669 369.068 172.14 366.848 172.669 364.734C173.198 362.62 174.574 360.823 176.479 359.766C189.707 353.001 216.268 341.162 244.312 338.308C246.746 338.096 249.18 339.048 250.661 340.95L257.751 349.301C259.339 351.204 259.868 353.846 259.127 356.172C258.386 358.603 256.481 360.4 254.048 361.14C241.137 364.839 220.607 372.239 196.268 386.509C195.21 387.249 193.834 387.566 192.564 387.566ZM245.053 339.153C244.841 339.153 244.629 339.153 244.418 339.153C216.48 341.902 190.13 353.741 176.902 360.506C175.209 361.351 173.939 362.937 173.516 364.839C173.092 366.742 173.516 368.75 174.68 370.23C178.172 374.776 183.146 380.166 188.014 384.817C190.13 386.826 193.305 387.143 195.845 385.663C220.29 371.287 240.925 363.782 253.836 360.188C255.952 359.554 257.646 357.969 258.28 355.855C258.915 353.741 258.492 351.521 257.011 349.829L249.92 341.479C248.756 339.999 246.957 339.153 245.053 339.153Z" fill="#49BDDD"/>
</g>
<g opacity="0.5">
<path opacity="0.5" d="M188.331 379.004C191.082 378.37 193.94 377.313 196.479 376.044C197.749 375.41 199.019 374.564 200.077 373.719C201.136 372.767 202.194 371.71 203.252 370.653C205.263 368.539 207.167 366.214 208.543 363.677C209.813 361.14 210.448 358.286 209.072 356.066C208.437 355.009 207.485 354.481 206.109 354.586C204.839 354.692 203.464 355.221 202.3 355.96C199.971 357.44 197.855 359.766 197.22 362.408C196.903 363.677 197.114 365.051 197.855 366.108C198.596 367.165 199.866 368.011 201.136 368.222C202.405 368.434 203.887 368.116 205.051 367.376C206.321 366.742 207.485 365.791 208.543 364.84C210.66 362.831 212.459 360.294 213.517 357.546C213.729 356.912 213.94 356.172 214.046 355.538C214.046 355.221 214.046 354.903 213.94 354.692C213.834 354.586 213.834 354.481 213.729 354.375C213.623 354.269 213.517 354.164 213.305 354.164C213.199 354.058 213.094 354.058 212.988 354.058C212.988 354.058 212.882 354.058 212.882 354.164C212.776 354.375 212.776 354.692 212.776 355.009C212.776 355.749 212.882 356.383 213.094 357.123C213.94 359.872 215.739 362.514 218.173 364.1C219.337 364.84 220.925 365.368 221.665 364.417C222.089 363.888 222.3 363.254 222.406 362.514C222.512 361.774 222.618 361.034 222.724 360.294C222.829 359.554 222.829 358.814 222.935 357.969C223.041 357.546 223.041 357.229 223.253 356.806C223.358 356.595 223.464 356.383 223.57 356.172C223.676 355.96 223.993 355.749 224.205 355.643C224.628 355.432 225.157 355.432 225.581 355.432C226.004 355.538 226.427 355.643 226.745 355.855C227.486 356.172 228.121 356.489 228.755 356.595C229.39 356.7 230.131 356.7 230.766 356.383C231.401 356.172 231.93 355.749 232.459 355.221C233.412 354.164 234.153 352.789 235.211 351.627C236.163 350.358 237.433 349.301 238.809 348.561C240.184 347.821 241.666 347.187 243.253 347.081C244.841 346.976 246.428 347.293 247.804 348.033C248.545 348.35 249.179 348.773 249.814 349.301L250.767 349.935C251.084 350.147 251.402 350.358 251.719 350.464C251.296 350.464 250.978 350.252 250.661 350.147L249.709 349.618C249.074 349.195 248.439 348.878 247.698 348.667C246.322 348.138 244.841 347.927 243.359 348.138C241.983 348.35 240.608 348.984 239.338 349.724C238.068 350.464 237.01 351.415 236.057 352.578C235.105 353.741 234.364 355.009 233.2 356.172C232.142 357.44 230.343 358.075 228.65 357.757C226.956 357.44 225.687 356.172 224.628 356.7C224.311 356.806 224.099 357.546 223.993 358.286C223.888 359.026 223.782 359.766 223.782 360.506C223.676 361.246 223.676 361.986 223.464 362.831C223.253 363.571 223.041 364.417 222.512 365.157C222.194 365.474 221.771 365.791 221.348 366.002C220.925 366.108 220.395 366.108 219.972 366.108C219.126 365.897 218.385 365.58 217.75 365.157C214.998 363.36 213.305 360.611 212.353 357.652C212.141 356.912 211.93 356.172 211.93 355.326C211.93 354.903 211.93 354.481 212.141 353.952C212.247 353.741 212.564 353.424 212.882 353.424C213.199 353.318 213.517 353.424 213.729 353.529C213.94 353.635 214.152 353.741 214.363 353.846C214.575 354.058 214.787 354.269 214.893 354.481C215.104 354.903 215.104 355.432 215.104 355.855C215.104 356.7 214.893 357.44 214.575 358.18C213.411 361.14 211.612 363.677 209.496 365.897C208.437 366.954 207.167 368.011 205.792 368.751C204.416 369.491 202.723 370.019 201.03 369.808C199.337 369.596 197.749 368.539 196.797 367.165C195.739 365.791 195.421 363.888 195.844 362.197C196.162 360.506 197.008 359.026 197.961 357.757C198.913 356.489 200.183 355.432 201.559 354.481C202.935 353.635 204.416 352.895 206.215 352.789C207.062 352.684 208.014 352.895 208.966 353.318C209.813 353.741 210.554 354.481 210.977 355.221C211.93 356.7 212.353 358.497 212.141 360.189C212.035 361.88 211.4 363.465 210.765 364.945C209.284 367.799 207.379 370.336 205.263 372.662C204.204 373.824 203.146 374.881 201.982 376.044C200.712 377.101 199.442 378.053 197.961 378.792C195.104 380.378 192.246 381.435 189.177 382.281C188.331 382.492 187.59 382.069 187.378 381.224C186.955 380.061 187.484 379.215 188.331 379.004C188.225 379.004 188.331 379.004 188.331 379.004Z" fill="#49BDDD"/>
</g>
<g opacity="0.2">
<g opacity="0.2">
<path opacity="0.2" d="M284.631 348.455C274.895 348.455 263.783 340.528 257.011 327.949C248.439 311.882 250.344 294.124 261.138 288.416C266.429 285.667 272.99 286.09 279.657 289.578C286.218 293.067 292.144 299.303 296.271 307.125C300.398 314.842 302.197 323.192 301.457 330.697C300.716 338.202 297.329 343.91 292.144 346.658C289.816 347.927 287.276 348.455 284.631 348.455ZM268.757 287.57C266.217 287.57 263.783 288.099 261.667 289.261C251.296 294.758 249.603 311.988 257.963 327.526C266.217 343.17 281.456 351.309 291.827 345.813C296.8 343.17 299.975 337.779 300.716 330.591C301.457 323.298 299.658 315.159 295.636 307.548C291.615 299.937 285.795 293.912 279.445 290.424C275.636 288.521 272.038 287.57 268.757 287.57Z" fill="#49BDDD"/>
</g>
<g opacity="0.2">
<path opacity="0.2" d="M283.89 341.479C280.927 341.479 277.858 340.633 274.789 338.942C269.604 336.194 265.053 331.331 261.879 325.306C255 312.305 256.799 298.246 266.006 293.384C275.212 288.521 287.911 294.864 294.79 307.865C297.964 313.89 299.446 320.338 298.811 326.152C298.176 332.494 295.319 337.251 290.663 339.682C288.546 340.95 286.324 341.479 283.89 341.479ZM272.673 298.246C271.403 298.246 270.133 298.563 268.969 299.092C263.149 302.157 262.408 312.833 267.487 322.347C270.133 327.209 273.731 331.12 277.858 333.34C281.456 335.348 284.948 335.56 287.594 334.185C290.239 332.811 291.933 329.746 292.356 325.623C292.779 321.078 291.615 315.793 289.075 310.931C284.948 303.32 278.175 298.246 272.673 298.246Z" fill="#49BDDD"/>
</g>
<g opacity="0.2">
<path opacity="0.2" d="M280.186 331.226H280.08C279.869 331.12 279.763 330.909 279.763 330.591L287.699 308.182C287.805 307.971 288.017 307.865 288.334 307.865C288.546 307.971 288.652 308.182 288.652 308.499L280.715 330.909C280.609 331.12 280.398 331.226 280.186 331.226Z" fill="#49BDDD"/>
</g>
<g opacity="0.2">
<path opacity="0.2" d="M276.8 326.575C276.588 326.575 276.377 326.469 276.377 326.258C275.848 324.355 275.213 321.712 274.683 319.704C274.366 319.176 274.049 318.436 273.837 317.273C273.731 316.639 273.625 316.216 274.154 316.11C274.578 316.004 274.683 316.004 275.53 319.387C275.742 319.598 275.953 319.81 276.165 319.81C276.694 319.915 277.435 319.281 278.07 318.118C278.916 316.744 277.435 313.573 276.165 311.036C274.895 308.288 273.943 306.174 275.001 305.328C275.318 305.117 275.636 305.011 275.953 305.011C277.117 305.223 278.281 306.808 279.34 308.394C279.869 309.134 280.61 310.191 280.927 310.296C281.139 310.296 281.35 310.508 281.35 310.825C281.35 311.036 281.139 311.248 280.821 311.248C280.186 311.248 279.657 310.402 278.599 308.922C277.752 307.654 276.588 306.068 275.848 305.963C275.742 305.963 275.636 305.963 275.53 306.068C275.001 306.491 276.165 308.922 277.012 310.719C278.387 313.785 279.869 316.85 278.811 318.647C277.647 320.655 276.588 320.867 275.953 320.761H275.848C276.165 322.135 276.588 323.826 277.223 326.046C277.329 326.258 277.117 326.575 276.906 326.575C276.906 326.575 276.906 326.575 276.8 326.575Z" fill="#49BDDD"/>
</g>
<g opacity="0.2">
<path opacity="0.2" d="M279.869 306.174C279.657 306.174 279.445 305.963 279.445 305.751L279.128 300.466C279.128 300.255 279.34 300.043 279.551 299.938C279.763 299.938 279.975 300.149 280.08 300.36L280.398 305.645C280.398 305.963 280.186 306.174 279.869 306.174Z" fill="#49BDDD"/>
</g>
</g>
<g opacity="0.2">
<path opacity="0.2" d="M130.128 297.612C127.906 297.612 125.895 296.238 125.154 294.018C122.72 286.513 118.17 272.243 115.524 261.25C115.207 259.77 115.419 258.185 116.371 256.916C117.218 255.648 118.593 254.908 120.181 254.696L256.799 241.589C258.915 241.378 261.032 242.54 261.984 244.443L273.096 266.641C273.942 268.226 273.836 270.129 272.884 271.715C271.932 273.3 270.344 274.252 268.545 274.252C251.402 274.674 203.57 277.846 131.61 297.295C131.08 297.506 130.551 297.612 130.128 297.612ZM257.222 242.54C257.116 242.54 256.905 242.54 256.799 242.54L120.181 255.648C118.911 255.753 117.747 256.388 117.112 257.445C116.371 258.502 116.159 259.77 116.371 261.039C119.017 271.926 123.567 286.196 126.001 293.701C126.742 295.921 129.07 297.084 131.292 296.555C203.358 277.106 251.19 273.934 268.439 273.512C269.921 273.512 271.297 272.666 272.037 271.398C272.778 270.129 272.884 268.544 272.249 267.275L261.138 245.077C260.397 243.492 258.81 242.54 257.222 242.54Z" fill="#49BDDD"/>
</g>
<g opacity="0.2">
<path opacity="0.2" d="M117.853 245.183C115.101 245.183 112.773 243.175 112.456 240.426L107.376 204.91C107.165 203.324 107.588 201.845 108.646 200.576C109.598 199.413 111.08 198.673 112.667 198.568L245.688 193.177C248.545 193.071 250.979 195.08 251.402 197.933L255.423 228.059C255.635 229.539 255.212 231.019 254.259 232.287C253.307 233.45 251.931 234.19 250.45 234.296L118.382 245.077C118.17 245.077 118.064 245.183 117.853 245.183ZM245.793 194.022C245.688 194.022 245.688 194.022 245.582 194.022L112.562 199.413C111.292 199.519 110.022 200.048 109.175 201.105C108.329 202.056 108.011 203.43 108.117 204.699L113.196 240.215C113.514 242.646 115.736 244.337 118.17 244.126L250.132 233.344C251.402 233.239 252.566 232.604 253.307 231.653C254.154 230.702 254.471 229.433 254.259 228.165L250.238 198.039C250.026 195.714 248.122 194.022 245.793 194.022Z" fill="#49BDDD"/>
</g>
<g opacity="0.2">
<path opacity="0.2" d="M112.244 193.811C108.963 193.811 106.212 191.38 105.788 188.103L101.767 155.758C101.556 153.855 102.19 151.952 103.46 150.578C104.73 149.204 106.635 148.358 108.54 148.464L239.973 153.643C243.148 153.749 245.793 156.18 246.216 159.246L249.285 182.183C249.497 183.98 248.968 185.883 247.804 187.257C246.64 188.631 244.841 189.477 243.042 189.583L112.561 193.811C112.35 193.811 112.244 193.811 112.244 193.811ZM106.635 187.997C106.953 190.851 109.492 192.965 112.35 192.859L242.83 188.631C244.417 188.631 245.899 187.891 246.957 186.623C248.015 185.46 248.439 183.875 248.227 182.289L245.158 159.351C244.841 156.603 242.513 154.595 239.867 154.489L108.434 149.31C106.741 149.204 105.154 149.944 104.095 151.107C102.931 152.269 102.402 153.961 102.614 155.546L106.635 187.997Z" fill="#49BDDD"/>
</g>
<path d="M125.578 174.573C125.366 174.573 125.154 174.467 125.049 174.362L122.086 171.085C121.768 170.768 121.874 170.345 122.086 170.028C122.403 169.711 122.826 169.816 123.144 170.028L125.472 172.565L128.753 167.068C128.964 166.751 129.387 166.645 129.811 166.857C130.128 167.068 130.234 167.491 130.022 167.914L126.213 174.256C126.107 174.362 125.895 174.573 125.578 174.573Z" fill="white"/>
<path d="M131.186 223.725C130.975 223.725 130.763 223.62 130.657 223.514L127.694 220.237C127.377 219.92 127.482 219.497 127.694 219.18C128.011 218.863 128.435 218.969 128.752 219.18L131.08 221.717L134.361 216.22C134.573 215.903 134.996 215.798 135.419 216.009C135.737 216.22 135.842 216.643 135.631 217.066L131.821 223.408C131.609 223.62 131.398 223.725 131.186 223.725Z" fill="white"/>
<path d="M174.257 350.147C174.151 350.147 173.939 350.147 173.833 350.147L169.495 349.195C168.436 348.984 167.802 347.927 168.013 346.87C168.225 345.813 169.283 345.179 170.341 345.39L174.68 346.341C175.738 346.553 176.373 347.61 176.162 348.667C175.95 349.513 175.103 350.147 174.257 350.147Z" fill="white"/>
<path d="M165.897 348.033C165.685 348.033 165.579 348.033 165.367 347.927L164.627 347.716C163.568 347.399 162.933 346.341 163.251 345.39C163.568 344.333 164.627 343.699 165.579 344.016L166.32 344.227C167.378 344.545 168.013 345.602 167.696 346.553C167.484 347.399 166.743 348.033 165.897 348.033Z" fill="white"/>
<path d="M176.267 349.936L176.902 347.504L178.172 349.407L176.267 349.936Z" fill="white"/>
<path opacity="0.2" d="M289.498 360.083L288.229 361.14C230.978 374.67 179.124 407.755 179.124 407.755C142.086 387.988 111.715 320.338 99.0159 279.008L95.7354 255.647C106 264.421 203.993 347.081 289.498 360.083Z" fill="url(#paint7_linear)"/>
<path d="M231.821 321.658C230.974 321.341 230.551 320.39 230.868 319.544L232.985 313.625C233.302 312.779 234.254 312.357 235.101 312.674C235.948 312.991 236.371 313.942 236.053 314.788L233.937 320.707C233.514 321.553 232.667 321.976 231.821 321.658Z" fill="url(#paint8_linear)"/>
<path d="M249.81 274.62L247.588 273.88C242.614 272.083 239.969 266.481 241.768 261.513L281.134 153.378C282.933 148.41 288.542 145.767 293.515 147.564L295.738 148.304C300.711 150.101 303.357 155.704 301.558 160.672L262.192 268.701C260.393 273.88 254.784 276.417 249.81 274.62Z" fill="url(#paint9_linear)"/>
<path d="M228.222 299.778C228.222 299.778 226.529 311.405 232.985 318.593C232.985 318.593 242.509 316.902 248.329 307.177L228.222 299.778Z" fill="url(#paint10_linear)"/>
<path d="M251.186 307.388C251.186 307.388 249.281 307.705 246.636 307.705C243.99 307.705 240.498 307.494 237.429 306.331L237.217 306.226C230.974 303.9 226 298.086 226 298.086C238.276 273.88 240.498 250.203 240.498 250.203L246.636 249.568C248.011 252.739 254.678 255.805 255.525 256.122C256.371 256.333 263.462 258.342 266.53 256.756L270.869 261.196C270.975 261.407 257.43 281.068 251.186 307.388Z" fill="url(#paint11_linear)"/>
<path d="M293.63 150.882C295.608 151.6 297.405 151.649 297.645 150.991C297.884 150.332 296.476 149.216 294.498 148.498C292.521 147.78 290.724 147.731 290.484 148.389C290.244 149.048 291.653 150.164 293.63 150.882Z" fill="#FC5852"/>
<path opacity="0.58" d="M270.975 261.407C254.255 263.839 240.604 250.309 240.604 250.309L246.741 249.674C248.117 252.845 254.784 255.911 255.63 256.228C256.477 256.439 263.567 258.448 266.636 256.862L270.975 261.407Z" fill="#4C6D86"/>
<path opacity="0.17" d="M281.98 152.215L249.069 250.203C249.069 250.203 252.244 253.374 255.842 254.431L292.457 157.289C292.563 157.289 283.674 154.752 281.98 152.215Z" fill="url(#paint12_linear)"/>
<path opacity="0.31" d="M282.722 152.004C282.722 152.004 285.579 148.621 288.965 148.304C288.965 148.304 289.706 149.89 293.622 151.687C293.622 151.687 293.41 154.964 292.669 156.655C292.775 156.655 287.801 155.809 282.722 152.004Z" fill="white"/>
</g>
<defs>
<filter id="filter0_f" x="49" y="0" width="447" height="447" filterUnits="userSpaceOnUse" color-interpolation-filters="sRGB">
<feFlood flood-opacity="0" result="BackgroundImageFix"/>
<feBlend mode="normal" in="SourceGraphic" in2="BackgroundImageFix" result="shape"/>
<feGaussianBlur stdDeviation="20" result="effect1_foregroundBlur"/>
</filter>
<linearGradient id="paint0_linear" x1="22.1485" y1="242.835" x2="283.542" y2="207.555" gradientUnits="userSpaceOnUse">
<stop stop-color="#49BDDD"/>
<stop offset="0.625" stop-color="#41979B"/>
<stop offset="0.996" stop-color="#342CA1"/>
</linearGradient>
<linearGradient id="paint1_linear" x1="116.26" y1="416.385" x2="72.8184" y2="93.7814" gradientUnits="userSpaceOnUse">
<stop offset="0.0405405" stop-color="#B1DDE6"/>
<stop offset="0.2649" stop-color="#4E9CDB"/>
<stop offset="1" stop-color="#41A0A0"/>
</linearGradient>
<linearGradient id="paint2_linear" x1="203.358" y1="404.634" x2="159.936" y2="82.1795" gradientUnits="userSpaceOnUse">
<stop stop-color="white"/>
<stop offset="1" stop-color="white"/>
</linearGradient>
<linearGradient id="paint3_linear" x1="202.215" y1="393.115" x2="161.881" y2="93.5971" gradientUnits="userSpaceOnUse">
<stop offset="0.00540541" stop-color="#D9D9D9"/>
<stop offset="1" stop-color="#7B7B7B"/>
</linearGradient>
<linearGradient id="paint4_linear" x1="236.048" y1="403.473" x2="219.84" y2="264.888" gradientUnits="userSpaceOnUse">
<stop stop-color="#9AB5FF"/>
<stop offset="1" stop-color="#CDFFFF"/>
</linearGradient>
<linearGradient id="paint5_linear" x1="104.632" y1="402.493" x2="80.8042" y2="225.544" gradientUnits="userSpaceOnUse">
<stop stop-color="#4C6D86"/>
<stop offset="1"/>
</linearGradient>
<linearGradient id="paint6_linear" x1="211.014" y1="408.331" x2="216.295" y2="105.469" gradientUnits="userSpaceOnUse">
<stop stop-color="white"/>
<stop offset="1" stop-color="#FBFBFB"/>
</linearGradient>
<linearGradient id="paint7_linear" x1="192.698" y1="407.777" x2="192.698" y2="255.606" gradientUnits="userSpaceOnUse">
<stop stop-color="#D9D9D9"/>
<stop offset="1" stop-color="#A3AEF6"/>
</linearGradient>
<linearGradient id="paint8_linear" x1="231.793" y1="321.674" x2="235.028" y2="312.77" gradientUnits="userSpaceOnUse">
<stop stop-color="#F6FFFF"/>
<stop offset="1" stop-color="#168CE8"/>
</linearGradient>
<linearGradient id="paint9_linear" x1="248.698" y1="274.234" x2="294.568" y2="147.97" gradientUnits="userSpaceOnUse">
<stop stop-color="#002C84"/>
<stop offset="0.9811" stop-color="#43E3E0"/>
</linearGradient>
<linearGradient id="paint10_linear" x1="232.701" y1="318.552" x2="238.196" y2="303.426" gradientUnits="userSpaceOnUse">
<stop stop-color="#D8EFF6"/>
<stop offset="1" stop-color="#4E9CDB"/>
</linearGradient>
<linearGradient id="paint11_linear" x1="237.343" y1="306.428" x2="256.639" y2="253.313" gradientUnits="userSpaceOnUse">
<stop stop-color="#419FA0"/>
<stop offset="1" stop-color="#3B617A"/>
</linearGradient>
<linearGradient id="paint12_linear" x1="251.54" y1="252.955" x2="287.409" y2="154.219" gradientUnits="userSpaceOnUse">
<stop/>
<stop offset="1" stop-color="white"/>
</linearGradient>
<clipPath id="clip0">
<rect y="75" width="318" height="341" fill="white"/>
</clipPath>
</defs>
</svg>
