<svg width="453" height="453" viewBox="0 0 453 453" fill="none" xmlns="http://www.w3.org/2000/svg">
<g filter="url(#filter0_d)">
<path d="M40 201.5C40 98.4989 123.499 15 226.5 15C329.501 15 413 98.4989 413 201.5C413 304.501 329.501 388 226.5 388C123.499 388 40 304.501 40 201.5Z" fill="url(#paint0_linear)"/>
<path d="M40.5 201.5C40.5 98.7751 123.775 15.5 226.5 15.5C329.225 15.5 412.5 98.7751 412.5 201.5C412.5 304.225 329.225 387.5 226.5 387.5C123.775 387.5 40.5 304.225 40.5 201.5Z" stroke="#E6ECF0"/>
</g>
<g filter="url(#filter1_d)">
<path d="M60 201.5C60 109.545 134.545 35 226.5 35C318.455 35 393 109.545 393 201.5C393 293.455 318.455 368 226.5 368C134.545 368 60 293.455 60 201.5Z" fill="url(#paint1_linear)"/>
<path d="M60 201.5C60 109.545 134.545 35 226.5 35C318.455 35 393 109.545 393 201.5C393 293.455 318.455 368 226.5 368C134.545 368 60 293.455 60 201.5Z" fill="url(#paint2_linear)"/>
</g>
<path opacity="0.1" d="M213.408 238.456H242.784L245.952 220.888C277.344 214.552 302.688 199.576 302.688 163C302.688 124.12 274.464 102.808 232.992 102.808C201.6 102.808 179.136 115.48 162.432 133.912L188.928 163C202.176 149.752 216 143.128 232.128 143.128C248.832 143.128 258.624 150.616 258.624 163.576C258.624 179.416 244.512 188.92 208.224 190.36L206.784 191.8L213.408 238.456ZM203.904 307H250.56V260.92H203.904V307Z" fill="white"/>
<defs>
<filter id="filter0_d" x="0" y="0" width="453" height="453" filterUnits="userSpaceOnUse" color-interpolation-filters="sRGB">
<feFlood flood-opacity="0" result="BackgroundImageFix"/>
<feColorMatrix in="SourceAlpha" type="matrix" values="0 0 0 0 0 0 0 0 0 0 0 0 0 0 0 0 0 0 127 0"/>
<feOffset dy="25"/>
<feGaussianBlur stdDeviation="20"/>
<feColorMatrix type="matrix" values="0 0 0 0 0.988235 0 0 0 0 0.345098 0 0 0 0 0.321569 0 0 0 0.33 0"/>
<feBlend mode="normal" in2="BackgroundImageFix" result="effect1_dropShadow"/>
<feBlend mode="normal" in="SourceGraphic" in2="effect1_dropShadow" result="shape"/>
</filter>
<filter id="filter1_d" x="20" y="20" width="413" height="413" filterUnits="userSpaceOnUse" color-interpolation-filters="sRGB">
<feFlood flood-opacity="0" result="BackgroundImageFix"/>
<feColorMatrix in="SourceAlpha" type="matrix" values="0 0 0 0 0 0 0 0 0 0 0 0 0 0 0 0 0 0 127 0"/>
<feOffset dy="25"/>
<feGaussianBlur stdDeviation="20"/>
<feColorMatrix type="matrix" values="0 0 0 0 1 0 0 0 0 0.569902 0 0 0 0 0.554167 0 0 0 0.3 0"/>
<feBlend mode="normal" in2="BackgroundImageFix" result="effect1_dropShadow"/>
<feBlend mode="normal" in="SourceGraphic" in2="effect1_dropShadow" result="shape"/>
</filter>
<linearGradient id="paint0_linear" x1="413" y1="84.005" x2="52.174" y2="106.116" gradientUnits="userSpaceOnUse">
<stop stop-color="white"/>
<stop offset="1" stop-color="#EDF0EF"/>
</linearGradient>
<linearGradient id="paint1_linear" x1="60" y1="35" x2="415.489" y2="59.7734" gradientUnits="userSpaceOnUse">
<stop stop-color="#43A1EC"/>
<stop offset="1" stop-color="#25EABA"/>
</linearGradient>
<linearGradient id="paint2_linear" x1="393" y1="96.6051" x2="110.941" y2="147.65" gradientUnits="userSpaceOnUse">
<stop stop-color="#5AD4CE"/>
<stop offset="1" stop-color="#68748F"/>
</linearGradient>
</defs>
</svg>
