<svg width="207" height="447" viewBox="0 0 207 447" fill="none" xmlns="http://www.w3.org/2000/svg">
<g opacity="0.5">
<g opacity="0.11">
<path opacity="0.11" d="M97.6941 412.568C101.064 414.518 105.142 414.518 108.512 412.568L172.976 375.441C173.952 374.821 173.952 373.403 172.976 372.782L107.98 335.301C105.054 333.617 101.418 333.617 98.4034 335.301L33.3183 372.783C32.3429 373.403 32.3429 374.821 33.3183 375.441L97.6941 412.568Z" fill="url(#paint0_linear)"/>
</g>
<g opacity="0.11">
<path opacity="0.11" d="M97.6941 423.379C101.064 425.328 105.142 425.328 108.512 423.379L172.976 386.251C173.952 385.631 173.952 384.213 172.976 383.593L107.98 346.111C105.054 344.427 101.418 344.427 98.4034 346.111L33.3183 383.593C32.3429 384.213 32.3429 385.631 33.3183 386.251L97.6941 423.379Z" fill="url(#paint1_linear)"/>
</g>
<g opacity="0.11">
<path opacity="0.11" d="M97.6941 434.188C101.064 436.138 105.142 436.138 108.512 434.188L172.976 397.061C173.952 396.441 173.952 395.023 172.976 394.403L107.98 356.921C105.054 355.237 101.418 355.237 98.4034 356.921L33.3183 394.403C32.3429 395.023 32.3429 396.441 33.3183 397.061L97.6941 434.188Z" fill="url(#paint2_linear)"/>
</g>
<g opacity="0.11">
<path opacity="0.11" d="M97.6931 445.088C101.063 447.037 105.142 447.037 108.511 445.088L172.975 407.96C173.951 407.34 173.951 405.922 172.975 405.302L107.979 367.82C105.053 366.136 101.417 366.136 98.4024 367.82L33.3173 405.302C32.3419 405.922 32.3419 407.34 33.3173 407.96L97.6931 445.088Z" fill="url(#paint3_linear)"/>
</g>
<path opacity="0.11" d="M33.4069 407.96L97.694 445.088C101.063 447.037 105.142 447.037 108.512 445.088L172.976 407.96C173.508 407.694 173.774 407.163 173.774 406.631L173.774 374.111C173.774 373.58 173.508 373.048 172.976 372.782L107.98 335.3C105.054 333.617 101.418 333.617 98.4033 335.3L33.3182 372.782C32.7861 373.048 32.5201 373.58 32.5201 374.111L32.5201 406.631C32.6088 407.163 32.8748 407.694 33.4069 407.96Z" fill="url(#paint4_linear)"/>
</g>
<g opacity="0.11">
<path opacity="0.11" d="M96.6301 94.6579C100.62 96.9617 105.586 96.9617 109.665 94.6579L187.341 49.9986C188.583 49.2897 188.583 47.5175 187.341 46.8086L109.044 1.61764C105.497 -0.42038 101.064 -0.42038 97.5168 1.61765L19.0422 46.8086C17.8008 47.5175 17.8008 49.2897 19.0422 49.9986L96.6301 94.6579Z" fill="url(#paint5_linear)"/>
</g>
<g opacity="0.11">
<path opacity="0.11" d="M96.6301 107.772C100.62 110.076 105.586 110.076 109.665 107.772L187.341 63.0242C188.583 62.3153 188.583 60.5431 187.341 59.8342L109.044 14.6433C105.497 12.6052 101.064 12.6052 97.5168 14.6433L19.0422 59.8342C17.8008 60.5431 17.8008 62.3153 19.0422 63.0242L96.6301 107.772Z" fill="url(#paint6_linear)"/>
</g>
<g opacity="0.11">
<path opacity="0.11" d="M96.6301 120.886C100.62 123.19 105.586 123.19 109.665 120.886L187.341 76.1384C188.583 75.4296 188.583 73.6574 187.341 72.9485L109.044 27.7575C105.497 25.7195 101.064 25.7195 97.5168 27.7575L19.0422 72.9485C17.8008 73.6574 17.8008 75.4296 19.0422 76.1385L96.6301 120.886Z" fill="url(#paint7_linear)"/>
</g>
<g opacity="0.11">
<path opacity="0.11" d="M96.6301 133.912C100.62 136.216 105.586 136.216 109.665 133.912L187.341 89.1639C188.583 88.455 188.583 86.6828 187.341 85.9739L109.044 40.783C105.497 38.745 101.064 38.745 97.5168 40.783L19.0422 85.9739C17.8008 86.6828 17.8008 88.455 19.0422 89.1639L96.6301 133.912Z" fill="url(#paint8_linear)"/>
</g>
<path opacity="0.11" d="M19.0416 89.1639L96.6295 133.912C100.62 136.216 105.585 136.216 109.664 133.912L187.341 89.1639C187.962 88.8094 188.228 88.1891 188.228 87.5689L188.228 48.3148C188.228 47.6945 187.962 47.0742 187.341 46.7198L109.044 1.52883C105.497 -0.509194 101.063 -0.509193 97.5162 1.52883L19.0416 46.7198C18.4208 47.0742 18.1548 47.6945 18.1548 48.3148L18.1548 87.5689C18.1548 88.1891 18.4208 88.8094 19.0416 89.1639Z" fill="url(#paint9_linear)"/>
<g opacity="0.11">
<path opacity="0.11" d="M95.2113 165.988C100.088 168.824 106.118 168.824 110.995 165.988L205.164 111.759C206.672 110.873 206.672 108.746 205.164 107.949L110.197 53.1879C105.852 50.7069 100.532 50.7069 96.2753 53.1879L1.13044 107.949C-0.376974 108.835 -0.376973 110.961 1.13044 111.759L95.2113 165.988Z" fill="url(#paint10_linear)"/>
</g>
<g opacity="0.11">
<path opacity="0.11" d="M95.2113 181.849C100.088 184.685 106.118 184.685 110.995 181.849L205.164 127.62C206.672 126.734 206.672 124.608 205.164 123.81L110.197 69.0493C105.852 66.5682 100.532 66.5682 96.2753 69.0493L1.13044 123.81C-0.376974 124.696 -0.376973 126.823 1.13044 127.62L95.2113 181.849Z" fill="url(#paint11_linear)"/>
</g>
<g opacity="0.11">
<path opacity="0.11" d="M95.2113 197.71C100.088 200.546 106.118 200.546 110.995 197.71L205.164 143.481C206.672 142.595 206.672 140.468 205.164 139.671L110.197 84.9101C105.852 82.429 100.532 82.429 96.2753 84.9101L1.13044 139.671C-0.376974 140.557 -0.376973 142.684 1.13044 143.481L95.2113 197.71Z" fill="url(#paint12_linear)"/>
</g>
<g opacity="0.11">
<path opacity="0.11" d="M95.2113 213.572C100.088 216.407 106.118 216.407 110.995 213.572L205.164 159.342C206.672 158.456 206.672 156.33 205.164 155.532L110.197 100.771C105.852 98.2904 100.532 98.2904 96.2753 100.771L1.13044 155.444C-0.376974 156.33 -0.376973 158.456 1.13044 159.254L95.2113 213.572Z" fill="url(#paint13_linear)"/>
</g>
<path d="M115.063 68.7761V25.2161L88.6717 10.0361V53.5961L69.9775 42.8161L101.868 109.036L133.978 79.7761L115.063 68.7761Z" fill="#FC5852"/>
<path d="M117.042 139.036C116.603 136.838 110.005 131.344 101.867 126.729C93.7297 122.114 87.1318 119.697 86.6919 121.455V126.07C86.6919 128.268 93.5098 133.762 102.087 138.816C110.445 143.651 117.482 145.848 117.482 143.87L117.042 139.036Z" fill="url(#paint14_linear)"/>
<path d="M101.867 143.211C93.51 138.376 86.4722 132.662 86.4722 130.465V134.86C86.4722 137.058 93.29 142.552 101.867 147.606C110.225 152.441 117.263 154.638 117.263 152.66V148.265C117.043 150.243 110.225 148.046 101.867 143.211Z" fill="url(#paint15_linear)"/>
<path d="M101.867 151.782C93.51 146.947 86.4722 141.234 86.4722 139.036V143.431C86.4722 145.629 93.29 151.123 101.867 156.177C110.225 161.012 117.263 163.21 117.263 161.232V156.837C117.043 159.034 110.225 156.617 101.867 151.782Z" fill="url(#paint16_linear)"/>
<path d="M101.867 160.572C93.51 155.737 86.4722 150.023 86.4722 147.826V152.221C86.4722 154.418 93.29 159.912 101.867 164.967C110.225 169.802 117.263 171.999 117.263 170.021V165.626C117.043 167.604 110.225 165.406 101.867 160.572Z" fill="url(#paint17_linear)"/>
<path d="M101.867 169.143C93.51 164.308 86.4722 158.595 86.4722 156.397V160.792C86.4722 162.99 93.29 168.484 101.867 173.538C110.225 178.373 117.263 180.57 117.263 178.593V174.197C117.043 176.395 110.225 174.197 101.867 169.143Z" fill="url(#paint18_linear)"/>
<defs>
<linearGradient id="paint0_linear" x1="173.732" y1="374.007" x2="32.6077" y2="374.007" gradientUnits="userSpaceOnUse">
<stop stop-color="#5761D7"/>
<stop offset="0.0725764" stop-color="#5472D8"/>
<stop offset="0.2791" stop-color="#4E9CDB"/>
<stop offset="0.4801" stop-color="#49BDDD"/>
<stop offset="0.6715" stop-color="#45D5DF"/>
<stop offset="0.8493" stop-color="#43E3E0"/>
<stop offset="1" stop-color="#42E8E0"/>
</linearGradient>
<linearGradient id="paint1_linear" x1="173.732" y1="384.855" x2="32.6077" y2="384.855" gradientUnits="userSpaceOnUse">
<stop stop-color="#5761D7"/>
<stop offset="0.0725764" stop-color="#5472D8"/>
<stop offset="0.2791" stop-color="#4E9CDB"/>
<stop offset="0.4801" stop-color="#49BDDD"/>
<stop offset="0.6715" stop-color="#45D5DF"/>
<stop offset="0.8493" stop-color="#43E3E0"/>
<stop offset="1" stop-color="#42E8E0"/>
</linearGradient>
<linearGradient id="paint2_linear" x1="173.732" y1="395.703" x2="32.6077" y2="395.703" gradientUnits="userSpaceOnUse">
<stop stop-color="#5761D7"/>
<stop offset="0.0725764" stop-color="#5472D8"/>
<stop offset="0.2791" stop-color="#4E9CDB"/>
<stop offset="0.4801" stop-color="#49BDDD"/>
<stop offset="0.6715" stop-color="#45D5DF"/>
<stop offset="0.8493" stop-color="#43E3E0"/>
<stop offset="1" stop-color="#42E8E0"/>
</linearGradient>
<linearGradient id="paint3_linear" x1="173.731" y1="406.552" x2="32.6067" y2="406.552" gradientUnits="userSpaceOnUse">
<stop stop-color="#5761D7"/>
<stop offset="0.0725764" stop-color="#5472D8"/>
<stop offset="0.2791" stop-color="#4E9CDB"/>
<stop offset="0.4801" stop-color="#49BDDD"/>
<stop offset="0.6715" stop-color="#45D5DF"/>
<stop offset="0.8493" stop-color="#43E3E0"/>
<stop offset="1" stop-color="#42E8E0"/>
</linearGradient>
<linearGradient id="paint4_linear" x1="173.732" y1="390.279" x2="32.6077" y2="390.279" gradientUnits="userSpaceOnUse">
<stop stop-color="#5761D7"/>
<stop offset="0.0725764" stop-color="#5472D8"/>
<stop offset="0.2791" stop-color="#4E9CDB"/>
<stop offset="0.4801" stop-color="#49BDDD"/>
<stop offset="0.6715" stop-color="#45D5DF"/>
<stop offset="0.8493" stop-color="#43E3E0"/>
<stop offset="1" stop-color="#42E8E0"/>
</linearGradient>
<linearGradient id="paint5_linear" x1="188.229" y1="48.261" x2="18.1112" y2="48.261" gradientUnits="userSpaceOnUse">
<stop stop-color="#5761D7"/>
<stop offset="0.0725764" stop-color="#5472D8"/>
<stop offset="0.2791" stop-color="#4E9CDB"/>
<stop offset="0.4801" stop-color="#49BDDD"/>
<stop offset="0.6715" stop-color="#45D5DF"/>
<stop offset="0.8493" stop-color="#43E3E0"/>
<stop offset="1" stop-color="#42E8E0"/>
</linearGradient>
<linearGradient id="paint6_linear" x1="188.229" y1="61.3384" x2="18.1112" y2="61.3384" gradientUnits="userSpaceOnUse">
<stop stop-color="#5761D7"/>
<stop offset="0.0725764" stop-color="#5472D8"/>
<stop offset="0.2791" stop-color="#4E9CDB"/>
<stop offset="0.4801" stop-color="#49BDDD"/>
<stop offset="0.6715" stop-color="#45D5DF"/>
<stop offset="0.8493" stop-color="#43E3E0"/>
<stop offset="1" stop-color="#42E8E0"/>
</linearGradient>
<linearGradient id="paint7_linear" x1="188.229" y1="74.4158" x2="18.1112" y2="74.4158" gradientUnits="userSpaceOnUse">
<stop stop-color="#5761D7"/>
<stop offset="0.0725764" stop-color="#5472D8"/>
<stop offset="0.2791" stop-color="#4E9CDB"/>
<stop offset="0.4801" stop-color="#49BDDD"/>
<stop offset="0.6715" stop-color="#45D5DF"/>
<stop offset="0.8493" stop-color="#43E3E0"/>
<stop offset="1" stop-color="#42E8E0"/>
</linearGradient>
<linearGradient id="paint8_linear" x1="188.229" y1="87.493" x2="18.1112" y2="87.4931" gradientUnits="userSpaceOnUse">
<stop stop-color="#5761D7"/>
<stop offset="0.0725764" stop-color="#5472D8"/>
<stop offset="0.2791" stop-color="#4E9CDB"/>
<stop offset="0.4801" stop-color="#49BDDD"/>
<stop offset="0.6715" stop-color="#45D5DF"/>
<stop offset="0.8493" stop-color="#43E3E0"/>
<stop offset="1" stop-color="#42E8E0"/>
</linearGradient>
<linearGradient id="paint9_linear" x1="188.228" y1="67.8769" x2="18.1106" y2="67.8769" gradientUnits="userSpaceOnUse">
<stop stop-color="#5761D7"/>
<stop offset="0.0725764" stop-color="#5472D8"/>
<stop offset="0.2791" stop-color="#4E9CDB"/>
<stop offset="0.4801" stop-color="#49BDDD"/>
<stop offset="0.6715" stop-color="#45D5DF"/>
<stop offset="0.8493" stop-color="#43E3E0"/>
<stop offset="1" stop-color="#42E8E0"/>
</linearGradient>
<linearGradient id="paint10_linear" x1="206.309" y1="109.689" x2="0.0314448" y2="109.689" gradientUnits="userSpaceOnUse">
<stop stop-color="#5761D7"/>
<stop offset="0.0725764" stop-color="#5472D8"/>
<stop offset="0.2791" stop-color="#4E9CDB"/>
<stop offset="0.4801" stop-color="#49BDDD"/>
<stop offset="0.6715" stop-color="#45D5DF"/>
<stop offset="0.8493" stop-color="#43E3E0"/>
<stop offset="1" stop-color="#42E8E0"/>
</linearGradient>
<linearGradient id="paint11_linear" x1="206.309" y1="125.546" x2="0.0314448" y2="125.546" gradientUnits="userSpaceOnUse">
<stop stop-color="#5761D7"/>
<stop offset="0.0725764" stop-color="#5472D8"/>
<stop offset="0.2791" stop-color="#4E9CDB"/>
<stop offset="0.4801" stop-color="#49BDDD"/>
<stop offset="0.6715" stop-color="#45D5DF"/>
<stop offset="0.8493" stop-color="#43E3E0"/>
<stop offset="1" stop-color="#42E8E0"/>
</linearGradient>
<linearGradient id="paint12_linear" x1="206.309" y1="141.403" x2="0.0314448" y2="141.403" gradientUnits="userSpaceOnUse">
<stop stop-color="#5761D7"/>
<stop offset="0.0725764" stop-color="#5472D8"/>
<stop offset="0.2791" stop-color="#4E9CDB"/>
<stop offset="0.4801" stop-color="#49BDDD"/>
<stop offset="0.6715" stop-color="#45D5DF"/>
<stop offset="0.8493" stop-color="#43E3E0"/>
<stop offset="1" stop-color="#42E8E0"/>
</linearGradient>
<linearGradient id="paint13_linear" x1="206.309" y1="157.26" x2="0.0314448" y2="157.261" gradientUnits="userSpaceOnUse">
<stop stop-color="#5761D7"/>
<stop offset="0.0725764" stop-color="#5472D8"/>
<stop offset="0.2791" stop-color="#4E9CDB"/>
<stop offset="0.4801" stop-color="#49BDDD"/>
<stop offset="0.6715" stop-color="#45D5DF"/>
<stop offset="0.8493" stop-color="#43E3E0"/>
<stop offset="1" stop-color="#42E8E0"/>
</linearGradient>
<linearGradient id="paint14_linear" x1="119.155" y1="132.754" x2="78.7726" y2="132.754" gradientUnits="userSpaceOnUse">
<stop offset="0.0353535" stop-color="#9D9EB3"/>
<stop offset="0.6465" stop-color="#EEEBF2"/>
<stop offset="0.9798" stop-color="#D4D1D8"/>
</linearGradient>
<linearGradient id="paint15_linear" x1="119.155" y1="141.919" x2="78.7728" y2="141.919" gradientUnits="userSpaceOnUse">
<stop offset="0.0353535" stop-color="#9D9EB3"/>
<stop offset="0.6465" stop-color="#EEEBF2"/>
<stop offset="0.9798" stop-color="#D4D1D8"/>
</linearGradient>
<linearGradient id="paint16_linear" x1="119.155" y1="150.613" x2="78.7728" y2="150.613" gradientUnits="userSpaceOnUse">
<stop offset="0.0353535" stop-color="#9D9EB3"/>
<stop offset="0.6465" stop-color="#EEEBF2"/>
<stop offset="0.9798" stop-color="#D4D1D8"/>
</linearGradient>
<linearGradient id="paint17_linear" x1="119.155" y1="159.304" x2="78.7728" y2="159.304" gradientUnits="userSpaceOnUse">
<stop offset="0.0353535" stop-color="#9D9EB3"/>
<stop offset="0.6465" stop-color="#EEEBF2"/>
<stop offset="0.9798" stop-color="#D4D1D8"/>
</linearGradient>
<linearGradient id="paint18_linear" x1="119.155" y1="167.998" x2="78.7728" y2="167.998" gradientUnits="userSpaceOnUse">
<stop offset="0.0353535" stop-color="#9D9EB3"/>
<stop offset="0.6465" stop-color="#EEEBF2"/>
<stop offset="0.9798" stop-color="#D4D1D8"/>
</linearGradient>
</defs>
</svg>
